<svg width="800" height="600" viewBox="0 0 800 600" fill="none" xmlns="http://www.w3.org/2000/svg">
  <rect width="800" height="600" fill="#0a0a0a"/>
  <rect x="50" y="50" width="700" height="500" rx="8" fill="#1a1a1a" stroke="#6600ff" stroke-width="2"/>
  <text x="400" y="100" text-anchor="middle" fill="#6600ff" font-family="monospace" font-size="24" font-weight="bold">MODULAR SYSTEM</text>
  <text x="400" y="140" text-anchor="middle" fill="#666" font-family="monospace" font-size="16">Arquitectura Modular y Escalable</text>
  <rect x="100" y="200" width="140" height="80" rx="4" fill="#333" stroke="#6600ff" stroke-width="1"/>
  <text x="170" y="230" text-anchor="middle" fill="#6600ff" font-family="monospace" font-size="10">CORE</text>
  <text x="170" y="245" text-anchor="middle" fill="#666" font-family="monospace" font-size="8">Núcleo</text>
  <rect x="280" y="200" width="140" height="80" rx="4" fill="#333" stroke="#6600ff" stroke-width="1"/>
  <text x="350" y="230" text-anchor="middle" fill="#6600ff" font-family="monospace" font-size="10">MODULES</text>
  <text x="350" y="245" text-anchor="middle" fill="#666" font-family="monospace" font-size="8">Módulos</text>
  <rect x="460" y="200" width="140" height="80" rx="4" fill="#333" stroke="#6600ff" stroke-width="1"/>
  <text x="530" y="230" text-anchor="middle" fill="#6600ff" font-family="monospace" font-size="10">PLUGINS</text>
  <text x="530" y="245" text-anchor="middle" fill="#666" font-family="monospace" font-size="8">Extensiones</text>
  <rect x="640" y="200" width="140" height="80" rx="4" fill="#333" stroke="#6600ff" stroke-width="1"/>
  <text x="710" y="230" text-anchor="middle" fill="#6600ff" font-family="monospace" font-size="10">API</text>
  <text x="710" y="245" text-anchor="middle" fill="#666" font-family="monospace" font-size="8">Interfaces</text>
  <rect x="100" y="320" width="680" height="120" rx="4" fill="#333" stroke="#6600ff" stroke-width="1"/>
  <text x="440" y="360" text-anchor="middle" fill="#6600ff" font-family="monospace" font-size="12">ARQUITECTURA MODULAR</text>
  <text x="440" y="380" text-anchor="middle" fill="#666" font-family="monospace" font-size="10">Componentes Intercambiables y Reutilizables</text>
  <rect x="100" y="470" width="680" height="50" rx="4" fill="#333" stroke="#6600ff" stroke-width="1"/>
  <text x="440" y="495" text-anchor="middle" fill="#6600ff" font-family="monospace" font-size="10">ESCALABILIDAD Y FLEXIBILIDAD</text>
</svg>